# xmcd
#
# Track frame offsets: 
#        150
#        22252
#        46967
#        64517
#        87075
#        104915
#        126925
#        148405
#        167995
#        188077
#
# Disc length: 2795 seconds
#
# Revision: 1
# Processed by: cddbd v1.5.2PL0 Copyright (c) Steve Scherf et al.
# Submitted via: ExactAudioCopy v1.3
#
DISCID=960ae90a
DTITLE=李玟 - CoCo(粤语)
DYEAR=1997
DGENRE=C-Pop
TTITLE0=忧伤天使
TTITLE1=真的想见你
TTITLE2=下次小心
TTITLE3=男女之爭
TTITLE4=念念不忘
TTITLE5=2090年再爱你
TTITLE6=余温
TTITLE7=差不多先生
TTITLE8=如果你决定不爱我
TTITLE9=问自己
EXTD=
EXTT0=
EXTT1=
EXTT2=
EXTT3=
EXTT4=
EXTT5=
EXTT6=
EXTT7=
EXTT8=
EXTT9=
PLAYORDER=
